<svg id="Layer_1" data-name="Layer 1" xmlns="http://www.w3.org/2000/svg" viewBox="0 0 100 100"><defs><style>.cls-1{fill:#fff;}</style></defs><path class="cls-1" d="M76.47,17.86a5.86,5.86,0,1,0,5.87,5.86A5.86,5.86,0,0,0,76.47,17.86Z"/><path class="cls-1" d="M50.41,25.37A24.63,24.63,0,1,0,75,50,24.66,24.66,0,0,0,50.41,25.37Zm0,40.41A15.78,15.78,0,1,1,66.18,50,15.8,15.8,0,0,1,50.41,65.78Z"/><path class="cls-1" d="M70,100H30A30.07,30.07,0,0,1,0,70V30A30.07,30.07,0,0,1,30,0H70a30.07,30.07,0,0,1,30,30V70A30.07,30.07,0,0,1,70,100ZM30,9.41A20.65,20.65,0,0,0,9.41,30V70A20.65,20.65,0,0,0,30,90.59H70A20.65,20.65,0,0,0,90.59,70V30A20.65,20.65,0,0,0,70,9.41Z"/></svg>