<svg id="Layer_1" data-name="Layer 1" xmlns="http://www.w3.org/2000/svg" viewBox="0 0 100 100"><defs><style>.cls-1{fill:#fff;}.cls-2{fill:#082032;}</style></defs><path class="cls-1" d="M45.38.33h8.87c12.17,0,19.28,1.79,25.6,5.18A35.09,35.09,0,0,1,94.49,20.15c3.39,6.32,5.18,13.43,5.18,25.6v8.83c0,12.17-1.79,19.29-5.18,25.6A35.11,35.11,0,0,1,79.85,94.83C73.53,98.21,66.42,100,54.25,100H45.42c-12.17,0-19.29-1.79-25.6-5.17A35.14,35.14,0,0,1,5.17,80.18C1.79,73.87,0,66.75,0,54.58V45.75c0-12.17,1.79-19.28,5.17-25.6A35.06,35.06,0,0,1,19.82,5.51C26.1,2.12,33.25.33,45.38.33Z"/><path class="cls-2" d="M15.28,87.47A29.29,29.29,0,0,0,29.9,84.65C47.87,94.58,76,94.1,93,83.22c.66-1,1.28-2,1.85-3.08,3.4-6.34,5.19-13.48,5.19-25.7V45.59c0-12.22-1.79-19.36-5.19-25.7a35.2,35.2,0,0,0-14.7-14.7C73.77,1.79,66.63,0,54.41,0H45.52C35.11,0,28.36,1.31,22.68,3.81l-.91.85C5.12,20.71,3.85,55.5,18,74.4l.06.09c2.17,3.2.07,8.82-3.21,12.1C14.28,87.09,14.47,87.39,15.28,87.47Z"/><path class="cls-1" d="M40.93,34.11H21.42V38.3H35L21.61,54.85a3.7,3.7,0,0,0-.73,2.47v1.06H39.29A1.69,1.69,0,0,0,41,56.71V54.46H26.74L39.29,38.72l.69-.84.08-.12a5,5,0,0,0,.87-3.08Z"/><path class="cls-1" d="M65.77,58.38h2.78V34.11H64.36V57A1.4,1.4,0,0,0,65.77,58.38Z"/><path class="cls-1" d="M51.47,39.52A9.51,9.51,0,1,0,61,49,9.51,9.51,0,0,0,51.47,39.52Zm0,15.1A5.6,5.6,0,1,1,57.06,49,5.61,5.61,0,0,1,51.47,54.62Z"/><path class="cls-1" d="M80.91,39.36A9.59,9.59,0,1,0,90.5,49,9.6,9.6,0,0,0,80.91,39.36Zm0,15.26A5.63,5.63,0,1,1,86.54,49,5.62,5.62,0,0,1,80.91,54.62Z"/><path class="cls-1" d="M58.78,58.38H61V40.05H57.1v16.7A1.68,1.68,0,0,0,58.78,58.38Z"/></svg>