<svg id="Layer_1" data-name="Layer 1" xmlns="http://www.w3.org/2000/svg" viewBox="0 0 100 100"><defs><style>.cls-1{fill:none;stroke:#fff;stroke-miterlimit:10;stroke-width:4.84px;}.cls-2{fill:#fff;}</style></defs><path class="cls-1" d="M14.66,59.74V38A35.08,35.08,0,0,1,49.75,2.88h0A35.08,35.08,0,0,1,84.83,38V59.74A35.09,35.09,0,0,1,49.75,94.83"/><path class="cls-2" d="M21.72,38c-.47,0-.94-.07-1.41-.07a20,20,0,0,0-20,20v3.63a20,20,0,0,0,20,20c.47,0,.94,0,1.41-.07Z"/><path class="cls-2" d="M77.77,38c.47,0,.94-.07,1.42-.07a20,20,0,0,1,20,20v3.63a20,20,0,0,1-20,20c-.48,0-1,0-1.42-.07Z"/><path class="cls-2" d="M61.85,94.22a5.45,5.45,0,0,1-5.45,5.45H43.09a5.45,5.45,0,0,1-5.44-5.45h0a5.45,5.45,0,0,1,5.44-5.44H56.4a5.45,5.45,0,0,1,5.45,5.44Z"/></svg>