<svg xmlns="http://www.w3.org/2000/svg" width="80" height="80" viewBox="0 0 80 80" fill="none"><mask id="mask0_34_1218" style="mask-type:luminance" maskUnits="userSpaceOnUse" x="0" y="0" width="80" height="80"><path d="M0 7.62939e-06H80V80H0V7.62939e-06Z" fill="white"></path></mask><g mask="url(#mask0_34_1218)"><path d="M30.7422 78.4375H10.8203C5.70734 78.4375 1.5625 74.2927 1.5625 69.1797V49.2578C1.5625 44.1448 5.70734 40 10.8203 40H30.7422C35.8552 40 40 44.1448 40 49.2578V69.1797C40 74.2927 35.8552 78.4375 30.7422 78.4375Z" stroke="black" stroke-miterlimit="10" stroke-linecap="round" stroke-linejoin="round"></path><path d="M8.4375 46.8591H33.125V71.5785H8.4375V46.8591Z" fill="#E2BB80"></path><path d="M69.1797 78.4375H49.2578C44.1448 78.4375 40 74.2927 40 69.1797V49.2578C40 44.1448 44.1448 40 49.2578 40H69.1797C74.2927 40 78.4375 44.1448 78.4375 49.2578V69.1797C78.4375 74.2927 74.2927 78.4375 69.1797 78.4375Z" stroke="black" stroke-miterlimit="10" stroke-linecap="round" stroke-linejoin="round"></path><path d="M46.875 46.8591H71.5625V71.5785H46.875V46.8591Z" stroke="black" stroke-miterlimit="10" stroke-linecap="round" stroke-linejoin="round"></path><path d="M49.9609 40H30.0391C24.9261 40 20.7812 35.8552 20.7812 30.7422V10.8203C20.7812 5.70734 24.9261 1.5625 30.0391 1.5625H49.9609C55.0739 1.5625 59.2188 5.70734 59.2188 10.8203V30.7422C59.2188 35.8552 55.0739 40 49.9609 40Z" stroke="black" stroke-miterlimit="10" stroke-linecap="round" stroke-linejoin="round"></path><path d="M27.6562 8.42162H52.3437V33.141H27.6562V8.42162Z" stroke="black" stroke-miterlimit="10" stroke-linecap="round" stroke-linejoin="round"></path><path d="M36.5815 25.1011L39.8334 16.5831C39.8997 16.4211 40.1297 16.4208 40.1965 16.5826L43.4187 25.1011" stroke="black" stroke-miterlimit="10" stroke-linecap="round" stroke-linejoin="round"></path><path d="M37.5955 22.9796H42.4208" stroke="black" stroke-miterlimit="10" stroke-linecap="round" stroke-linejoin="round"></path><path d="M22.6466 56.8869C22.6466 57.9849 21.7544 58.8749 20.6539 58.8749C20.1081 58.8749 18.1384 58.8837 18.1384 58.8837V56.8869V54.899H20.6539C21.7544 54.899 22.6466 55.789 22.6466 56.8869Z" stroke="black" stroke-miterlimit="10" stroke-linecap="round" stroke-linejoin="round"></path><path d="M23.4241 61.2028C23.4241 62.4872 22.3805 63.5283 21.0931 63.5283C20.4547 63.5283 18.1384 63.5386 18.1384 63.5386V61.2028V58.8773H21.0931C22.3805 58.8773 23.4241 59.9184 23.4241 61.2028Z" stroke="black" stroke-miterlimit="10" stroke-linecap="round" stroke-linejoin="round"></path><path d="M61.8274 55.2951C61.1363 54.8294 60.3034 54.5573 59.4067 54.5573C57.0153 54.5573 55.0767 56.4914 55.0767 58.8772C55.0767 61.263 57.0153 63.197 59.4067 63.197C60.3778 63.197 61.1767 62.878 61.7829 62.3394C61.9084 62.2278 62.0257 62.107 62.1343 61.9776" stroke="black" stroke-miterlimit="10" stroke-linecap="round" stroke-linejoin="round"></path></g></svg>