<svg xmlns="http://www.w3.org/2000/svg" width="80" height="80" viewBox="0 0 80 80" fill="none"><path d="M40.0001 78.4375H19.9968V71.5608C19.9968 66.0371 24.4748 61.5591 29.9985 61.5591C35.5223 61.5591 40.0003 66.0371 40.0003 71.5608V78.4375H40.0001Z" fill="#E2BB80"></path><path d="M29.9983 56.3896C33.6557 56.3896 36.6207 53.4247 36.6207 49.7672C36.6207 46.1098 33.6557 43.1449 29.9983 43.1449C26.3409 43.1449 23.376 46.1098 23.376 49.7672C23.376 53.4247 26.3409 56.3896 29.9983 56.3896Z" fill="#E2BB80"></path><path d="M60.0033 78.4375H40V71.5608C40 66.0371 44.478 61.5591 50.0017 61.5591C55.5255 61.5591 60.0034 66.0371 60.0034 71.5608V78.4375H60.0033Z" fill="#E2BB80"></path><path d="M50.0017 56.3896C53.6592 56.3896 56.6241 53.4247 56.6241 49.7672C56.6241 46.1098 53.6592 43.1449 50.0017 43.1449C46.3443 43.1449 43.3794 46.1098 43.3794 49.7672C43.3794 53.4247 46.3443 56.3896 50.0017 56.3896Z" fill="#E2BB80"></path><path d="M43.2165 26.5021C41.0659 26.5021 40.2433 27.86 39.9954 28.4275C39.7479 27.86 38.9312 26.5021 36.7806 26.5021C34.5933 26.5021 32.6692 28.0039 32.6692 30.7464C32.6692 31.8563 32.894 32.8069 33.5181 33.868C34.7898 36.0302 39.9951 39.4316 39.9951 39.4316C39.9951 39.4316 45.2022 36.0472 46.4837 33.868C47.1078 32.8069 47.3311 31.8563 47.3311 30.7464C47.3311 28.0039 45.4039 26.5021 43.2165 26.5021Z" stroke="black" stroke-miterlimit="10" stroke-linecap="round" stroke-linejoin="round"></path><path d="M68.7699 34.3456V78.4375H11.2302V34.3456" stroke="black" stroke-miterlimit="10" stroke-linecap="round" stroke-linejoin="round"></path><path d="M71.6493 36.3781L40.0001 12.8416L8.3509 36.3781L2.95996 29.108L40.0001 1.5625L77.0403 29.108L71.6493 36.3781Z" stroke="black" stroke-miterlimit="10" stroke-linecap="round" stroke-linejoin="round"></path><path d="M70.0102 23.8798V9.36829H60.4023V16.735L70.0102 23.8798Z" stroke="black" stroke-miterlimit="10" stroke-linecap="round" stroke-linejoin="round"></path></svg>