<svg xmlns="http://www.w3.org/2000/svg" width="80" height="80" viewBox="0 0 80 80" fill="none"><path d="M59.8185 38.3577H51.4522V41.7411H43.6585V38.3577H35.2922V41.7411H27.4985V38.3577H19.1321V49.2911H59.8185V38.3577Z" stroke="black" stroke-miterlimit="10" stroke-linecap="round" stroke-linejoin="round"></path><mask id="mask0_34_863" style="mask-type:luminance" maskUnits="userSpaceOnUse" x="0" y="0" width="80" height="80"><path d="M0 7.62939e-06H80V80H0V7.62939e-06Z" fill="white"></path></mask><g mask="url(#mask0_34_863)"><path d="M21.2944 57.9688V49.2911H57.6565V78.4375H21.2944V63.125" stroke="black" stroke-miterlimit="10" stroke-linecap="round" stroke-linejoin="round"></path></g><path d="M39.4753 6.28504V11.9736" stroke="black" stroke-miterlimit="10" stroke-linecap="round" stroke-linejoin="round"></path><mask id="mask1_34_863" style="mask-type:luminance" maskUnits="userSpaceOnUse" x="0" y="0" width="80" height="80"><path d="M0 7.62939e-06H80V80H0V7.62939e-06Z" fill="white"></path></mask><g mask="url(#mask1_34_863)"><path d="M50.3585 8.78088H39.4753V1.56245H50.3585V8.78088Z" stroke="black" stroke-miterlimit="10" stroke-linecap="round" stroke-linejoin="round"></path></g><path d="M49.324 28.125L55.4455 38.1642" stroke="black" stroke-miterlimit="10" stroke-linecap="round" stroke-linejoin="round"></path><path d="M23.5051 38.1642L39.4753 11.9736L45.894 22.5" stroke="black" stroke-miterlimit="10" stroke-linecap="round" stroke-linejoin="round"></path><mask id="mask2_34_863" style="mask-type:luminance" maskUnits="userSpaceOnUse" x="0" y="0" width="80" height="80"><path d="M0 7.62939e-06H80V80H0V7.62939e-06Z" fill="white"></path></mask><g mask="url(#mask2_34_863)"><path d="M46.1483 78.4375H32.8025V68.6653C32.8025 64.9894 35.7823 62.0095 39.4583 62.0095H39.4925C43.1684 62.0095 46.1483 64.9894 46.1483 68.6653V78.4375Z" stroke="black" stroke-miterlimit="10" stroke-linecap="round" stroke-linejoin="round"></path><path d="M76.2694 31.6307C76.2694 28.4895 73.723 25.9431 70.5819 25.9431H69.144C69.2397 25.4065 69.2897 24.854 69.2897 24.29C69.2897 19.1232 65.1012 14.9348 59.9345 14.9348C56.6995 14.9348 53.8481 16.5767 52.1681 19.0725C51.1217 18.5407 49.9376 18.2409 48.6834 18.2409C44.4297 18.2409 40.9812 21.6893 40.9812 25.9431C40.9812 25.9484 40.9814 25.9537 40.9814 25.959C38.0401 26.1781 35.7222 28.6336 35.7222 31.6307C35.7222 31.7531 35.7259 31.8746 35.7336 31.9951H76.2579C76.2656 31.8746 76.2694 31.7531 76.2694 31.6307Z" fill="#E2BB80"></path><path d="M31.4135 66.5501C31.4135 64.4054 29.6751 62.667 27.5304 62.667H26.5488C26.6141 62.3005 26.6482 61.9235 26.6482 61.5384C26.6482 58.0109 23.7887 55.1512 20.2612 55.1512C18.0526 55.1512 16.1059 56.2723 14.9588 57.9762C14.2445 57.613 13.436 57.4085 12.5798 57.4085C9.67556 57.4085 7.32134 59.7627 7.32134 62.667C7.32134 62.6705 7.32134 62.6741 7.32134 62.6779C5.31337 62.8274 3.73071 64.5038 3.73071 66.5501C3.73071 66.6337 3.73337 66.7165 3.73853 66.7988H31.4057C31.4109 66.7165 31.4135 66.6337 31.4135 66.5501Z" fill="#E2BB80"></path></g></svg>