<svg xmlns="http://www.w3.org/2000/svg" width="80" height="80" viewBox="0 0 80 80" fill="none"><mask id="mask0_34_1156" style="mask-type:luminance" maskUnits="userSpaceOnUse" x="0" y="0" width="80" height="80"><path d="M0 7.62939e-06H80V80H0V7.62939e-06Z" fill="white"></path></mask><g mask="url(#mask0_34_1156)"><path d="M4.7002 36.8622C4.7002 17.3881 20.4696 1.59734 39.9354 1.56249C59.3861 1.52765 75.2997 17.7137 75.2997 37.1645V53.3355C75.2997 57.6678 71.7877 61.1798 67.4554 61.1798C63.123 61.1798 59.611 64.6919 59.611 69.0242V78.4375H20.3889V69.0242C20.3889 64.6919 16.8769 61.1798 12.5446 61.1798C8.21223 61.1798 4.7002 57.6678 4.7002 53.3355V36.8622Z" stroke="black" stroke-miterlimit="10" stroke-linecap="round" stroke-linejoin="round"></path><path d="M28.2334 72.1619V78.4374" stroke="black" stroke-miterlimit="10" stroke-linecap="round" stroke-linejoin="round"></path><path d="M36.0776 72.1619V78.4374" stroke="black" stroke-miterlimit="10" stroke-linecap="round" stroke-linejoin="round"></path><path d="M43.9221 72.1619V78.4374" stroke="black" stroke-miterlimit="10" stroke-linecap="round" stroke-linejoin="round"></path><path d="M51.7666 72.1619V78.4374" stroke="black" stroke-miterlimit="10" stroke-linecap="round" stroke-linejoin="round"></path><path d="M33.635 57.0486L38.5208 46.345C39.1783 45.2063 40.8218 45.2063 41.4793 46.345L46.3651 57.0486C47.0226 58.1874 46.2008 59.611 44.8858 59.611H35.1143C33.7993 59.611 32.9775 58.1874 33.635 57.0486Z" fill="#E2BB80"></path><path d="M35.2934 31.3711C35.2934 36.5699 31.0788 40.7844 25.8801 40.7844C20.6813 40.7844 16.4668 36.5699 16.4668 31.3711C16.4668 26.1724 20.6813 21.9579 25.8801 21.9579C31.0788 21.9579 35.2934 26.1724 35.2934 31.3711Z" fill="#E2BB80"></path><path d="M63.5331 31.3711C63.5331 36.5699 59.3186 40.7844 54.1198 40.7844C48.9211 40.7844 44.7065 36.5699 44.7065 31.3711C44.7065 26.1724 48.9211 21.9579 54.1198 21.9579C59.3186 21.9579 63.5331 26.1724 63.5331 31.3711Z" fill="#E2BB80"></path></g></svg>