<svg xmlns="http://www.w3.org/2000/svg" width="80" height="80" viewBox="0 0 80 80" fill="none"><path fill-rule="evenodd" clip-rule="evenodd" d="M15.0916 57.5462C31.5176 48.3617 48.3617 31.5176 57.5462 15.0916C55.1713 13.4094 52.6077 12.114 49.945 11.1965C41.5701 26.0752 26.0752 41.5701 11.1965 49.945C12.114 52.6077 13.4094 55.1715 15.0916 57.5462Z" fill="#E2BB80"></path><path fill-rule="evenodd" clip-rule="evenodd" d="M76.5766 77.7685C79.0594 75.2856 79.0594 71.2601 76.5766 68.7774C74.0937 66.2946 70.0682 66.2946 67.5855 68.7774C65.1027 71.2603 65.1027 75.2858 67.5855 77.7685C70.0682 80.2513 74.0937 80.2513 76.5766 77.7685Z" fill="#E2BB80"></path><path d="M76.5991 3.40173C83.067 9.86963 71.9259 31.4949 51.7083 51.7125C31.4952 71.9258 9.86976 83.0667 3.40186 76.599" stroke="black" stroke-miterlimit="10" stroke-linecap="round" stroke-linejoin="round"></path><path d="M3.40179 76.599C-0.83061 72.3712 2.47522 61.6574 10.9177 49.0951M49.0949 10.9176C61.6573 2.47534 72.371 -0.830639 76.5989 3.40176" stroke="black" stroke-miterlimit="10" stroke-linecap="round" stroke-linejoin="round"></path><path d="M14.5428 5.87119C18.4244 1.99411 24.7078 1.99411 28.5894 5.87119C32.4665 9.75281 32.4665 16.0362 28.5894 19.9178C24.7078 23.7949 18.4244 23.7949 14.5428 19.9178C10.6657 16.0362 10.6657 9.75265 14.5428 5.87119Z" stroke="black" stroke-miterlimit="10" stroke-linecap="round" stroke-linejoin="round"></path><path d="M31.2746 10.8052C41.651 7.71513 53.3498 10.2655 61.5404 18.4559C73.4415 30.3526 73.4415 49.6437 61.5404 61.5402C49.6436 73.4413 30.3526 73.4413 18.456 61.5402C7.42289 50.5071 6.62226 33.1142 16.0586 21.1591" stroke="black" stroke-miterlimit="10" stroke-linecap="round" stroke-linejoin="round"></path></svg>