<svg xmlns="http://www.w3.org/2000/svg" width="80" height="80" viewBox="0 0 80 80" fill="none"><path d="M63.5684 24.0106V78.4375H16.4321V24.0106" stroke="black" stroke-miterlimit="10" stroke-linecap="round" stroke-linejoin="round"></path><path d="M56.812 71.6763L56.812 28.3866L23.1886 28.3866L23.1886 71.6763H56.812Z" fill="#E2BB80"></path><path d="M65.1065 1.5625H14.8937C8.74545 1.5625 3.76123 6.57844 3.76123 12.7661C3.76123 18.9536 8.74545 23.9697 14.8937 23.9697C20.624 23.9697 25.3431 19.6125 25.9583 14.0106H54.0419C54.657 19.6125 59.3761 23.9697 65.1064 23.9697C71.2547 23.9697 76.2389 18.9538 76.2389 12.7661C76.239 6.57844 71.2548 1.5625 65.1065 1.5625Z" stroke="black" stroke-miterlimit="10" stroke-linecap="round" stroke-linejoin="round"></path><path d="M32.1099 36.9928V63.07" stroke="black" stroke-miterlimit="10" stroke-linecap="round" stroke-linejoin="round"></path><path d="M40 36.9928V63.07" stroke="black" stroke-miterlimit="10" stroke-linecap="round" stroke-linejoin="round"></path><path d="M47.8901 36.9928V63.07" stroke="black" stroke-miterlimit="10" stroke-linecap="round" stroke-linejoin="round"></path><path d="M14.9305 16.2767C16.8694 16.2767 18.4412 14.705 18.4412 12.7661C18.4412 10.8273 16.8694 9.25549 14.9305 9.25549C12.9917 9.25549 11.4199 10.8273 11.4199 12.7661C11.4199 14.705 12.9917 16.2767 14.9305 16.2767Z" stroke="black" stroke-miterlimit="10" stroke-linecap="round" stroke-linejoin="round"></path><path d="M65.0697 16.2767C67.0086 16.2767 68.5803 14.705 68.5803 12.7661C68.5803 10.8273 67.0086 9.25549 65.0697 9.25549C63.1308 9.25549 61.5591 10.8273 61.5591 12.7661C61.5591 14.705 63.1308 16.2767 65.0697 16.2767Z" stroke="black" stroke-miterlimit="10" stroke-linecap="round" stroke-linejoin="round"></path></svg>