<svg xmlns="http://www.w3.org/2000/svg" width="80" height="80" viewBox="0 0 80 80" fill="none"><path d="M40.9108 43.0969C49.0932 42.5935 55.3183 35.5523 54.815 27.3699C54.3116 19.1875 47.2704 12.9624 39.088 13.4658C30.9056 13.9691 24.6805 21.0103 25.1839 29.1927C25.6872 37.3751 32.7284 43.6002 40.9108 43.0969Z" fill="#E2BB80"></path><path d="M1.5625 61.7346L35.3125 70.7779C35.8811 72.8994 37.8036 74.3747 40 74.3747C42.1964 74.3747 44.1191 72.8994 44.6875 70.7779L78.4375 61.7346" stroke="black" stroke-miterlimit="22.9256" stroke-linecap="round" stroke-linejoin="round"></path><path d="M4.72559 62.004L6.24464 56.3351L40 65.3797L73.7553 56.3351L75.2742 62.004" stroke="black" stroke-miterlimit="22.9256" stroke-linecap="round" stroke-linejoin="round"></path><path d="M35.3125 70.1041C35.8809 67.9825 37.8036 66.5072 40 66.5072C42.1964 66.5072 44.1191 67.9825 44.6875 70.1041" stroke="black" stroke-miterlimit="22.9256" stroke-linecap="round" stroke-linejoin="round"></path><path d="M40.0002 65.3798L7.96191 51.4232" stroke="black" stroke-miterlimit="22.9256" stroke-linecap="round" stroke-linejoin="round"></path><path d="M40 65.3798L72.0383 51.4232" stroke="black" stroke-miterlimit="22.9256" stroke-linecap="round" stroke-linejoin="round"></path><path fill-rule="evenodd" clip-rule="evenodd" d="M41.5793 6.05837L45.3805 8.22602L49.7933 8.24946C50.9275 8.25384 51.9255 8.86368 52.4596 9.77649L54.6896 13.5918L58.5049 15.8216C59.5688 16.4426 60.1256 17.5994 60.0333 18.7504L60.0553 22.9008L62.2526 26.7541C62.8203 27.7542 62.7698 28.9369 62.223 29.8602L60.0553 33.6614L60.0319 38.0742C60.0273 39.2084 59.4177 40.2064 58.5049 40.7404L54.6896 42.9704L52.4597 46.7857C51.8388 47.8496 50.6819 48.4065 49.531 48.3141L45.3805 48.3362L41.5273 50.5337C40.5271 51.1013 39.3445 51.0507 38.4212 50.504L34.6199 48.3363L30.2072 48.3129C29.0729 48.3084 28.0748 47.6988 27.5409 46.7859L25.3109 42.9706L21.4956 40.7407C20.4317 40.1198 19.8748 38.9629 19.9672 37.812L19.9452 33.6615L17.7478 29.8083C17.1802 28.8081 17.2308 27.6256 17.7775 26.7022L19.9452 22.901L19.9686 18.4882C19.9728 17.3932 20.5489 16.3757 21.4956 15.8219L25.3109 13.5919L27.5408 9.77664C28.1617 8.71274 29.3186 8.15587 30.4695 8.24821L34.6199 8.22618L38.4732 6.02884C39.4734 5.46103 40.6559 5.51166 41.5793 6.05837Z" stroke="black" stroke-miterlimit="22.9256" stroke-linecap="round" stroke-linejoin="round"></path><path fill-rule="evenodd" clip-rule="evenodd" d="M40 27.3046C41.9364 27.3046 43.5156 25.7253 43.5156 23.7889C43.5156 21.8525 41.9364 20.2733 40 20.2733C38.0636 20.2733 36.4844 21.8527 36.4844 23.7889C36.4844 25.7252 38.0637 27.3046 40 27.3046Z" stroke="black" stroke-miterlimit="22.9256" stroke-linecap="round" stroke-linejoin="round"></path><path d="M33.2085 33.2974C34.0322 30.2235 36.8177 28.0858 40.0002 28.0858C43.1827 28.0858 45.9682 30.2233 46.7918 33.2974" stroke="black" stroke-miterlimit="22.9256" stroke-linecap="round" stroke-linejoin="round"></path></svg>
